#!OML:ASF X:\für Bonn\!DataBase\2005_08_11_Bastian_Final\c3d\Bastian.ASF
:FULLY-SPECIFIED
:DEGREES
166
root -1.09925 18.4181 -0.538398 168.539 -60.8364 -178.114
lowerback 5.23183 -5.68754 0.365608
upperback -0.810754 -7.52945 3.05548
thorax -3.38856 -3.75631 3.54113
lowerneck -0.53696 -16.1956 -9.37541
upperneck -3.44216 -21.8027 13.4217
head 1.55704 -10.9346 4.62622
rclavicle 1.08735e-013 2.22639e-014
rhumerus 52.5985 -7.57288 23.7487
rradius 28.6412
rwrist -282.797
rhand 19.3955 -20.1383
rfingers 7.12502
rthumb 43.9715 -404.032
lclavicle 1.08735e-013 2.22639e-014
lhumerus 452.209 -4.99238 -304.417
lradius 32.1052
lwrist -135.991
lhand -19.2968 9.61053
lfingers 7.12502
lthumb 7.01868 39.4742
rfemur 2.40292 6.65641 22.3804
rtibia 33.0724
rfoot -10.4425 -22.3348
rtoes 6.51685
lfemur 7.66967 13.2633 -5.5694
ltibia 33.6399
lfoot 7.57515 6.833
ltoes -39.0118
167
root -1.07871 18.4091 -0.551565 168.55 -60.8845 -178.174
lowerback 5.2903 -5.71611 0.330619
upperback -0.77335 -7.57 3.06836
thorax -3.37407 -3.77652 3.58016
lowerneck -0.293369 -16.1367 -9.47753
upperneck -3.55427 -21.7297 13.4696
head 1.4944 -10.9073 4.68472
rclavicle -2.72335e-014 -4.77083e-015
rhumerus 52.9117 -8.04297 22.3942
rradius 28.7091
rwrist -281.348
rhand 19.4581 -19.7411
rfingers 7.12502
rthumb 44.0299 -403.613
lclavicle -2.72335e-014 -4.77083e-015
lhumerus 451.772 -5.10274 -304.805
lradius 32.6835
lwrist -135.886
lhand -19.2432 9.84013
lfingers 7.12502
lthumb 7.07035 39.702
rfemur 2.41246 6.67234 22.4802
rtibia 33.1262
rfoot -10.9443 -22.5133
rtoes 7.23344
lfemur 7.71006 13.1852 -5.52069
ltibia 33.5743
lfoot 7.5639 6.62647
ltoes -39.2363
168
root -1.058 18.399 -0.562344 168.547 -60.9205 -178.214
lowerback 5.36258 -5.73949 0.306501
upperback -0.744712 -7.60247 3.08164
thorax -3.37811 -3.79257 3.61551
lowerneck 0.0180038 -16.0709 -9.55622
upperneck -3.72125 -21.649 13.5259
head 1.4025 -10.8798 4.75233
rclavicle -9.0447e-014 -1.59028e-014
rhumerus 53.222 -8.46325 21.1095
rradius 28.7873
rwrist -280.026
rhand 19.526 -19.2199
rfingers 7.12502
rthumb 44.0932 -403.068
lclavicle -9.0447e-014 -1.59028e-014
lhumerus 451.354 -5.22908 -305.177
lradius 33.2106
lwrist -135.603
lhand -19.0556 10.0804
lfingers 7.12502
lthumb 7.25146 39.9361
rfemur 2.40998 6.61117 22.5642
rtibia 33.175
rfoot -11.3882 -22.6178
rtoes 7.87351
lfemur 7.72745 13.1161 -5.46193
ltibia 33.5413
lfoot 7.51632 6.39569
ltoes -39.4997
169
root -1.03636 18.389 -0.572131 168.523 -60.933 -178.23
lowerback 5.43314 -5.75247 0.316136
upperback -0.702583 -7.61928 3.07886
thorax -3.37457 -3.8016 3.61385
lowerneck 0.310315 -16.0111 -9.64528
upperneck -3.88929 -21.5781 13.6251
head 1.32046 -10.8573 4.82992
rclavicle -8.66701e-014 3.49861e-014
rhumerus 53.4725 -8.82864 19.8884
rradius 28.8805
rwrist -278.896
rhand 19.47 -18.7541
rfingers 7.12502
rthumb 44.041 -402.622
lclavicle -8.66701e-014 3.49861e-014
lhumerus 450.98 -5.38388 -305.497
lradius 33.7452
lwrist -135.312
lhand -18.7573 10.2641
lfingers 7.12502
lthumb 7.53945 40.1098
rfemur 2.41132 6.6561 22.6951
rtibia 33.2102
rfoot -11.828 -22.8083
rtoes 8.44057
lfemur 7.72636 13.0948 -5.38226
ltibia 33.546
lfoot 7.51436 6.09481
ltoes -39.9398
170
root -1.015 18.3768 -0.579782 168.488 -60.9372 -178.223
lowerback 5.50822 -5.77071 0.326612
upperback -0.66809 -7.64299 3.09956
thorax -3.378 -3.81416 3.63746
lowerneck 0.577611 -15.9533 -9.73029
upperneck -4.0362 -21.5075 13.684
head 1.24326 -10.8329 4.89304
rclavicle 1.41137e-014 5.56597e-014
rhumerus 53.7507 -9.14784 18.8253
rradius 28.993
rwrist -277.932
rhand 19.4217 -18.2514
rfingers 7.12502
rthumb 43.996 -402.136
lclavicle 1.41137e-014 5.56597e-014
lhumerus 450.618 -5.49452 -305.813
lradius 34.2388
lwrist -134.955
lhand -18.3755 10.4951
lfingers 7.12502
lthumb 7.90796 40.3272
rfemur 2.39923 6.64782 22.8103
rtibia 33.2338
rfoot -12.2792 -22.9247
rtoes 8.896
lfemur 7.70455 13.13 -5.27668
ltibia 33.5885
lfoot 7.48977 5.72125
ltoes -40.4044
171
root -0.993445 18.3642 -0.58575 168.505 -60.9291 -178.276
lowerback 5.59494 -5.76888 0.308325
upperback -0.646117 -7.64097 3.11624
thorax -3.39915 -3.81285 3.673
lowerneck 0.890842 -15.8985 -9.82913
upperneck -4.22905 -21.4425 13.7733
head 1.15085 -10.8138 4.97187
rclavicle -8.26944e-014 -2.70347e-014
rhumerus 53.9887 -9.44707 17.7405
rradius 29.1291
rwrist -276.977
rhand 19.2347 -17.7798
rfingers 7.12502
rthumb 43.8215 -401.729
lclavicle -8.26944e-014 -2.70347e-014
lhumerus 450.303 -5.62526 -306.121
lradius 34.7057
lwrist -134.587
lhand -17.9733 10.7782
lfingers 7.12502
lthumb 8.29614 40.5953
rfemur 2.38871 6.62889 22.8896
rtibia 33.2464
rfoot -12.6565 -23.0422
rtoes 9.33319
lfemur 7.66447 13.1451 -5.217
ltibia 33.6664
lfoot 7.41615 5.39629
ltoes -40.6544
